<svg viewBox="0 0 760 360" xmlns="http://www.w3.org/2000/svg" font-family="system-ui,-apple-system,Segoe UI,sans-serif">
<rect x="0" y="0" width="760" height="360" fill="#FFFFFF" rx="12"/>
<line x1="52" y1="320.0" x2="736" y2="320.0" stroke="#E6DDD2" stroke-width="1"/>
<text x="42" y="324.0" text-anchor="end" font-size="12" fill="#4A3F32">75</text>
<line x1="52" y1="246.0" x2="736" y2="246.0" stroke="#E6DDD2" stroke-width="1"/>
<text x="42" y="250.0" text-anchor="end" font-size="12" fill="#4A3F32">77</text>
<line x1="52" y1="172.0" x2="736" y2="172.0" stroke="#E6DDD2" stroke-width="1"/>
<text x="42" y="176.0" text-anchor="end" font-size="12" fill="#4A3F32">79</text>
<line x1="52" y1="98.0" x2="736" y2="98.0" stroke="#E6DDD2" stroke-width="1"/>
<text x="42" y="102.0" text-anchor="end" font-size="12" fill="#4A3F32">81</text>
<line x1="52" y1="24.0" x2="736" y2="24.0" stroke="#E6DDD2" stroke-width="1"/>
<text x="42" y="28.0" text-anchor="end" font-size="12" fill="#4A3F32">83</text>
<line x1="52" y1="24" x2="52" y2="320" stroke="#BEB0A0" stroke-width="1"/>
<line x1="52" y1="320" x2="736" y2="320" stroke="#BEB0A0" stroke-width="1"/>
<text x="52.0" y="340" text-anchor="middle" font-size="12" fill="#4A3F32">0</text>
<text x="204.0" y="340" text-anchor="middle" font-size="12" fill="#4A3F32">10</text>
<text x="356.0" y="340" text-anchor="middle" font-size="12" fill="#4A3F32">20</text>
<text x="508.0" y="340" text-anchor="middle" font-size="12" fill="#4A3F32">30</text>
<text x="660.0" y="340" text-anchor="middle" font-size="12" fill="#4A3F32">40</text>
<text x="736.0" y="340" text-anchor="middle" font-size="12" fill="#4A3F32">45</text>
<text x="394.0" y="354" text-anchor="middle" font-size="12" fill="#4A3F32">day of tracking</text>
<path d="M 508.0 174.0 L 523.2 178.6 L 538.4 183.2 L 553.6 187.9 L 568.8 192.5 L 584.0 197.2 L 599.2 201.8 L 614.4 206.4 L 629.6 211.1 L 644.8 215.7 L 660.0 220.4 L 675.2 225.0 L 690.4 229.6 L 705.6 234.3 L 720.8 238.9 L 736.0 243.6 L 736.0 277.0 L 720.8 271.6 L 705.6 266.2 L 690.4 260.8 L 675.2 255.4 L 660.0 250.1 L 644.8 244.7 L 629.6 239.3 L 614.4 233.9 L 599.2 228.5 L 584.0 223.2 L 568.8 217.8 L 553.6 212.4 L 538.4 207.0 L 523.2 201.6 L 508.0 196.2 Z" fill="#B3700C" fill-opacity="0.12" stroke="none"/>
<path d="M 508.0 185.1 L 523.2 190.1 L 538.4 195.1 L 553.6 200.1 L 568.8 205.1 L 584.0 210.2 L 599.2 215.2 L 614.4 220.2 L 629.6 225.2 L 644.8 230.2 L 660.0 235.2 L 675.2 240.2 L 690.4 245.2 L 705.6 250.2 L 720.8 255.3 L 736.0 260.3" fill="none" stroke="#B3700C" stroke-width="2" stroke-dasharray="5,5" stroke-linecap="round" stroke-opacity="0.85"/>
<circle cx="52.0" cy="64.0" r="3" fill="#4A3F32" fill-opacity="0.55" stroke="#FFFFFF" stroke-width="1.5"/>
<circle cx="67.2" cy="55.1" r="3" fill="#4A3F32" fill-opacity="0.55" stroke="#FFFFFF" stroke-width="1.5"/>
<circle cx="82.4" cy="58.4" r="3" fill="#4A3F32" fill-opacity="0.55" stroke="#FFFFFF" stroke-width="1.5"/>
<circle cx="112.8" cy="69.9" r="3" fill="#4A3F32" fill-opacity="0.55" stroke="#FFFFFF" stroke-width="1.5"/>
<circle cx="128.0" cy="81.7" r="3" fill="#4A3F32" fill-opacity="0.55" stroke="#FFFFFF" stroke-width="1.5"/>
<circle cx="143.2" cy="103.9" r="3" fill="#4A3F32" fill-opacity="0.55" stroke="#FFFFFF" stroke-width="1.5"/>
<circle cx="158.4" cy="122.4" r="3" fill="#4A3F32" fill-opacity="0.55" stroke="#FFFFFF" stroke-width="1.5"/>
<circle cx="173.6" cy="116.9" r="3" fill="#4A3F32" fill-opacity="0.55" stroke="#FFFFFF" stroke-width="1.5"/>
<circle cx="188.8" cy="125.4" r="3" fill="#4A3F32" fill-opacity="0.55" stroke="#FFFFFF" stroke-width="1.5"/>
<circle cx="204.0" cy="94.3" r="3" fill="#4A3F32" fill-opacity="0.55" stroke="#FFFFFF" stroke-width="1.5"/>
<circle cx="219.2" cy="111.3" r="3" fill="#4A3F32" fill-opacity="0.55" stroke="#FFFFFF" stroke-width="1.5"/>
<circle cx="234.4" cy="120.6" r="3" fill="#4A3F32" fill-opacity="0.55" stroke="#FFFFFF" stroke-width="1.5"/>
<circle cx="264.8" cy="125.0" r="3" fill="#4A3F32" fill-opacity="0.55" stroke="#FFFFFF" stroke-width="1.5"/>
<circle cx="295.2" cy="114.3" r="3" fill="#4A3F32" fill-opacity="0.55" stroke="#FFFFFF" stroke-width="1.5"/>
<circle cx="310.4" cy="165.0" r="3" fill="#4A3F32" fill-opacity="0.55" stroke="#FFFFFF" stroke-width="1.5"/>
<circle cx="325.6" cy="146.5" r="3" fill="#4A3F32" fill-opacity="0.55" stroke="#FFFFFF" stroke-width="1.5"/>
<circle cx="340.8" cy="178.7" r="3" fill="#4A3F32" fill-opacity="0.55" stroke="#FFFFFF" stroke-width="1.5"/>
<circle cx="371.2" cy="181.2" r="3" fill="#4A3F32" fill-opacity="0.55" stroke="#FFFFFF" stroke-width="1.5"/>
<circle cx="386.4" cy="186.1" r="3" fill="#4A3F32" fill-opacity="0.55" stroke="#FFFFFF" stroke-width="1.5"/>
<circle cx="401.6" cy="145.7" r="3" fill="#4A3F32" fill-opacity="0.55" stroke="#FFFFFF" stroke-width="1.5"/>
<circle cx="416.8" cy="190.1" r="3" fill="#4A3F32" fill-opacity="0.55" stroke="#FFFFFF" stroke-width="1.5"/>
<circle cx="432.0" cy="204.9" r="3" fill="#4A3F32" fill-opacity="0.55" stroke="#FFFFFF" stroke-width="1.5"/>
<circle cx="462.4" cy="223.1" r="3" fill="#4A3F32" fill-opacity="0.55" stroke="#FFFFFF" stroke-width="1.5"/>
<circle cx="477.6" cy="217.1" r="3" fill="#4A3F32" fill-opacity="0.55" stroke="#FFFFFF" stroke-width="1.5"/>
<circle cx="492.8" cy="187.9" r="3" fill="#4A3F32" fill-opacity="0.55" stroke="#FFFFFF" stroke-width="1.5"/>
<circle cx="508.0" cy="239.7" r="3" fill="#4A3F32" fill-opacity="0.55" stroke="#FFFFFF" stroke-width="1.5"/>
<path d="M 52.0 64.0 L 67.2 62.8 L 82.4 62.2 L 112.8 64.1 L 128.0 66.4 L 143.2 71.4 L 158.4 78.2 L 173.6 83.4 L 188.8 89.0 L 204.0 89.7 L 219.2 92.6 L 234.4 96.3 L 264.8 103.4 L 295.2 106.1 L 310.4 113.9 L 325.6 118.3 L 340.8 126.3 L 371.2 140.0 L 386.4 146.1 L 401.6 146.1 L 416.8 151.9 L 432.0 159.0 L 462.4 174.9 L 477.6 180.5 L 492.8 181.5 L 508.0 189.2" fill="none" stroke="#B3700C" stroke-width="2.5" stroke-linecap="round" stroke-linejoin="round"/>
<circle cx="508.0" cy="189.2" r="4.5" fill="#B3700C" stroke="#FFFFFF" stroke-width="2"/>
<text x="518.0" y="179.2" font-size="13" font-weight="600" fill="#1A1814">78.5 kg</text>
<text x="736.0" y="238.3" text-anchor="end" font-size="12" fill="#4A3F32">~76.6 kg proj.</text>
<circle cx="58" cy="28" r="3" fill="#4A3F32" fill-opacity="0.55"/>
<text x="68" y="32" font-size="12" fill="#4A3F32">raw weigh-in</text>
<line x1="176" y1="28" x2="194" y2="28" stroke="#B3700C" stroke-width="2.5"/>
<text x="200" y="32" font-size="12" fill="#4A3F32">EMA (τ=7d)</text>
<rect x="294" y="23" width="18" height="10" fill="#B3700C" fill-opacity="0.264"/>
<text x="318" y="32" font-size="12" fill="#4A3F32">projection band</text>
</svg>